solid OpenSCAD_Model
  facet normal 0 0 1
    outer loop
      vertex 150 -150 10
      vertex 12.4753 -86.8151 10
      vertex 12.5 -87.6 10
    endloop
  endfacet
  facet normal 0 0 1
    outer loop
      vertex 150 -150 10
      vertex 12.4014 -86.0333 10
      vertex 12.4753 -86.8151 10
    endloop
  endfacet
  facet normal 0 0 1
    outer loop
      vertex 150 -150 10
      vertex 12.2786 -85.2577 10
      vertex 12.4014 -86.0333 10
    endloop
  endfacet
  facet normal 0 0 1
    outer loop
      vertex 150 -150 10
      vertex 12.1073 -84.4914 10
      vertex 12.2786 -85.2577 10
    endloop
  endfacet
  facet normal 0 0 1
    outer loop
      vertex 150 -150 10
      vertex 11.8882 -83.7373 10
      vertex 12.1073 -84.4914 10
    endloop
  endfacet
  facet normal 0 0 1
    outer loop
      vertex 150 -150 10
      vertex 11.6222 -82.9984 10
      vertex 11.8882 -83.7373 10
    endloop
  endfacet
  facet normal 0 0 1
    outer loop
      vertex 150 -150 10
      vertex 11.3103 -82.2778 10
      vertex 11.6222 -82.9984 10
    endloop
  endfacet
  facet normal 0 0 1
    outer loop
      vertex 150 -150 10
      vertex 10.9538 -81.5781 10
      vertex 11.3103 -82.2778 10
    endloop
  endfacet
  facet normal 0 0 1
    outer loop
      vertex 150 -150 10
      vertex 10.5541 -80.9022 10
      vertex 10.9538 -81.5781 10
    endloop
  endfacet
  facet normal 0 0 1
    outer loop
      vertex 150 -150 10
      vertex 10.1127 -80.2527 10
      vertex 10.5541 -80.9022 10
    endloop
  endfacet
  facet normal 0 0 1
    outer loop
      vertex 150 -150 10
      vertex 9.63142 -79.6322 10
      vertex 10.1127 -80.2527 10
    endloop
  endfacet
  facet normal 0 0 1
    outer loop
      vertex 150 -150 10
      vertex 9.11211 -79.0432 10
      vertex 9.63142 -79.6322 10
    endloop
  endfacet
  facet normal 0 0 1
    outer loop
      vertex 150 -150 10
      vertex 8.55684 -78.4879 10
      vertex 9.11211 -79.0432 10
    endloop
  endfacet
  facet normal 0 0 1
    outer loop
      vertex 150 -150 10
      vertex 7.9678 -77.9686 10
      vertex 8.55684 -78.4879 10
    endloop
  endfacet
  facet normal 0 0 1
    outer loop
      vertex 150 -150 10
      vertex 7.34731 -77.4873 10
      vertex 7.9678 -77.9686 10
    endloop
  endfacet
  facet normal 0 0 1
    outer loop
      vertex -77.4873 7.34731 10
      vertex 7.34731 -77.4873 10
      vertex 150 -150 10
    endloop
  endfacet
  facet normal 0 0 1
    outer loop
      vertex 7.34731 -77.4873 10
      vertex -77.4873 7.34731 10
      vertex 6.69783 -77.0459 10
    endloop
  endfacet
  facet normal -0 -0 1
    outer loop
      vertex -77.0459 6.69783 10
      vertex 6.69783 -77.0459 10
      vertex -77.4873 7.34731 10
    endloop
  endfacet
  facet normal -0 0 1
    outer loop
      vertex -79.0432 -9.11211 10
      vertex -9.11211 -79.0432 10
      vertex -78.4879 -8.55684 10
    endloop
  endfacet
  facet normal 0 0 1
    outer loop
      vertex -8.55684 -78.4879 10
      vertex -78.4879 -8.55684 10
      vertex -9.11211 -79.0432 10
    endloop
  endfacet
  facet normal -0 0 1
    outer loop
      vertex -78.4879 -8.55684 10
      vertex -8.55684 -78.4879 10
      vertex -77.9686 -7.9678 10
    endloop
  endfacet
  facet normal 0 0 1
    outer loop
      vertex -7.9678 -77.9686 10
      vertex -77.9686 -7.9678 10
      vertex -8.55684 -78.4879 10
    endloop
  endfacet
  facet normal -0 0 1
    outer loop
      vertex -77.9686 -7.9678 10
      vertex -7.9678 -77.9686 10
      vertex -77.4873 -7.34731 10
    endloop
  endfacet
  facet normal 0 0 1
    outer loop
      vertex -7.34731 -77.4873 10
      vertex -77.4873 -7.34731 10
      vertex -7.9678 -77.9686 10
    endloop
  endfacet
  facet normal -0 0 1
    outer loop
      vertex -77.4873 -7.34731 10
      vertex -7.34731 -77.4873 10
      vertex -77.0459 -6.69783 10
    endloop
  endfacet
  facet normal 0 0 1
    outer loop
      vertex -6.69783 -77.0459 10
      vertex -77.0459 -6.69783 10
      vertex -7.34731 -77.4873 10
    endloop
  endfacet
  facet normal -0 0 1
    outer loop
      vertex -77.0459 -6.69783 10
      vertex -6.69783 -77.0459 10
      vertex -76.6462 -6.02192 10
    endloop
  endfacet
  facet normal 0 0 1
    outer loop
      vertex -6.02192 -76.6462 10
      vertex -76.6462 -6.02192 10
      vertex -6.69783 -77.0459 10
    endloop
  endfacet
  facet normal -0 0 1
    outer loop
      vertex -76.6462 -6.02192 10
      vertex -6.02192 -76.6462 10
      vertex -76.2897 -5.32224 10
    endloop
  endfacet
  facet normal 0 0 1
    outer loop
      vertex -5.32224 -76.2897 10
      vertex -76.2897 -5.32224 10
      vertex -6.02192 -76.6462 10
    endloop
  endfacet
  facet normal -0 0 1
    outer loop
      vertex -76.2897 -5.32224 10
      vertex -5.32224 -76.2897 10
      vertex -75.9778 -4.60156 10
    endloop
  endfacet
  facet normal 0 0 1
    outer loop
      vertex -4.60156 -75.9778 10
      vertex -75.9778 -4.60156 10
      vertex -5.32224 -76.2897 10
    endloop
  endfacet
  facet normal -0 0 1
    outer loop
      vertex -75.9778 -4.60156 10
      vertex -4.60156 -75.9778 10
      vertex -75.7118 -3.86271 10
    endloop
  endfacet
  facet normal 0 0 1
    outer loop
      vertex -3.86271 -75.7118 10
      vertex -75.7118 -3.86271 10
      vertex -4.60156 -75.9778 10
    endloop
  endfacet
  facet normal -0 0 1
    outer loop
      vertex -75.7118 -3.86271 10
      vertex -3.86271 -75.7118 10
      vertex -75.4927 -3.10862 10
    endloop
  endfacet
  facet normal 0 0 1
    outer loop
      vertex -3.10862 -75.4927 10
      vertex -75.4927 -3.10862 10
      vertex -3.86271 -75.7118 10
    endloop
  endfacet
  facet normal -0 0 1
    outer loop
      vertex -75.4927 -3.10862 10
      vertex -3.10862 -75.4927 10
      vertex -75.3214 -2.34227 10
    endloop
  endfacet
  facet normal 0 0 1
    outer loop
      vertex -2.34227 -75.3214 10
      vertex -75.3214 -2.34227 10
      vertex -3.10862 -75.4927 10
    endloop
  endfacet
  facet normal -0 0 1
    outer loop
      vertex -75.3214 -2.34227 10
      vertex -2.34227 -75.3214 10
      vertex -75.1986 -1.56666 10
    endloop
  endfacet
  facet normal 0 0 1
    outer loop
      vertex -1.56666 -75.1986 10
      vertex -75.1986 -1.56666 10
      vertex -2.34227 -75.3214 10
    endloop
  endfacet
  facet normal -0 0 1
    outer loop
      vertex -75.1986 -1.56666 10
      vertex -1.56666 -75.1986 10
      vertex -75.1247 -0.784881 10
    endloop
  endfacet
  facet normal 0 0 1
    outer loop
      vertex -0.784881 -75.1247 10
      vertex -75.1247 -0.784881 10
      vertex -1.56666 -75.1986 10
    endloop
  endfacet
  facet normal -0 0 1
    outer loop
      vertex -75.1247 -0.784881 10
      vertex -0.784881 -75.1247 10
      vertex -75.1 0 10
    endloop
  endfacet
  facet normal 0 0 1
    outer loop
      vertex 0 -75.1 10
      vertex -75.1 0 10
      vertex -0.784881 -75.1247 10
    endloop
  endfacet
  facet normal 0 0 1
    outer loop
      vertex 0.784881 -75.1247 10
      vertex -75.1 0 10
      vertex 0 -75.1 10
    endloop
  endfacet
  facet normal 0 0 1
    outer loop
      vertex -75.1247 0.784881 10
      vertex 0.784881 -75.1247 10
      vertex 1.56666 -75.1986 10
    endloop
  endfacet
  facet normal 0 0 1
    outer loop
      vertex -75.1986 1.56666 10
      vertex 1.56666 -75.1986 10
      vertex 2.34227 -75.3214 10
    endloop
  endfacet
  facet normal 0 0 1
    outer loop
      vertex -75.3214 2.34227 10
      vertex 2.34227 -75.3214 10
      vertex 3.10862 -75.4927 10
    endloop
  endfacet
  facet normal 0 0 1
    outer loop
      vertex -75.4927 3.10862 10
      vertex 3.10862 -75.4927 10
      vertex 3.86271 -75.7118 10
    endloop
  endfacet
  facet normal 0 0 1
    outer loop
      vertex -75.7118 3.86271 10
      vertex 3.86271 -75.7118 10
      vertex 4.60156 -75.9778 10
    endloop
  endfacet
  facet normal 0 0 1
    outer loop
      vertex -75.9778 4.60156 10
      vertex 4.60156 -75.9778 10
      vertex 5.32224 -76.2897 10
    endloop
  endfacet
  facet normal 0 0 1
    outer loop
      vertex 6.69783 -77.0459 10
      vertex -77.0459 6.69783 10
      vertex 6.02192 -76.6462 10
    endloop
  endfacet
  facet normal 0 0 1
    outer loop
      vertex 0.784881 -75.1247 10
      vertex -75.1247 0.784881 10
      vertex -75.1 0 10
    endloop
  endfacet
  facet normal 0 0 1
    outer loop
      vertex 1.56666 -75.1986 10
      vertex -75.1986 1.56666 10
      vertex -75.1247 0.784881 10
    endloop
  endfacet
  facet normal 0 0 1
    outer loop
      vertex 2.34227 -75.3214 10
      vertex -75.3214 2.34227 10
      vertex -75.1986 1.56666 10
    endloop
  endfacet
  facet normal 0 0 1
    outer loop
      vertex 3.10862 -75.4927 10
      vertex -75.4927 3.10862 10
      vertex -75.3214 2.34227 10
    endloop
  endfacet
  facet normal 0 0 1
    outer loop
      vertex 3.86271 -75.7118 10
      vertex -75.7118 3.86271 10
      vertex -75.4927 3.10862 10
    endloop
  endfacet
  facet normal 0 0 1
    outer loop
      vertex 4.60156 -75.9778 10
      vertex -75.9778 4.60156 10
      vertex -75.7118 3.86271 10
    endloop
  endfacet
  facet normal 0 0 1
    outer loop
      vertex 5.32224 -76.2897 10
      vertex -76.2897 5.32224 10
      vertex -75.9778 4.60156 10
    endloop
  endfacet
  facet normal 0 0 1
    outer loop
      vertex 5.32224 -76.2897 10
      vertex -76.6462 6.02192 10
      vertex -76.2897 5.32224 10
    endloop
  endfacet
  facet normal 0 0 1
    outer loop
      vertex 6.02192 -76.6462 10
      vertex -76.6462 6.02192 10
      vertex 5.32224 -76.2897 10
    endloop
  endfacet
  facet normal -0 -0 1
    outer loop
      vertex -76.6462 6.02192 10
      vertex 6.02192 -76.6462 10
      vertex -77.0459 6.69783 10
    endloop
  endfacet
  facet normal 0 0 1
    outer loop
      vertex -150 150 10
      vertex -77.4873 7.34731 10
      vertex 150 -150 10
    endloop
  endfacet
  facet normal 0 0 1
    outer loop
      vertex -77.4873 7.34731 10
      vertex -150 150 10
      vertex -77.9686 7.9678 10
    endloop
  endfacet
  facet normal 0 0 1
    outer loop
      vertex -77.9686 7.9678 10
      vertex -150 150 10
      vertex -78.4879 8.55684 10
    endloop
  endfacet
  facet normal 0 0 1
    outer loop
      vertex -78.4879 8.55684 10
      vertex -150 150 10
      vertex -79.0432 9.11211 10
    endloop
  endfacet
  facet normal 0 0 1
    outer loop
      vertex -79.0432 9.11211 10
      vertex -150 150 10
      vertex -79.6322 9.63142 10
    endloop
  endfacet
  facet normal 0 0 1
    outer loop
      vertex -79.6322 9.63142 10
      vertex -150 150 10
      vertex -80.2527 10.1127 10
    endloop
  endfacet
  facet normal 0 0 1
    outer loop
      vertex -150 150 10
      vertex -80.9022 10.5541 10
      vertex -80.2527 10.1127 10
    endloop
  endfacet
  facet normal 0 0 1
    outer loop
      vertex -150 150 10
      vertex -81.5781 10.9538 10
      vertex -80.9022 10.5541 10
    endloop
  endfacet
  facet normal 0 0 1
    outer loop
      vertex -150 150 10
      vertex -82.2778 11.3103 10
      vertex -81.5781 10.9538 10
    endloop
  endfacet
  facet normal 0 0 1
    outer loop
      vertex -150 150 10
      vertex -82.9984 11.6222 10
      vertex -82.2778 11.3103 10
    endloop
  endfacet
  facet normal 0 0 1
    outer loop
      vertex -150 150 10
      vertex -83.7373 11.8882 10
      vertex -82.9984 11.6222 10
    endloop
  endfacet
  facet normal 0 0 1
    outer loop
      vertex -150 150 10
      vertex -84.4914 12.1073 10
      vertex -83.7373 11.8882 10
    endloop
  endfacet
  facet normal 0 0 1
    outer loop
      vertex -150 150 10
      vertex -85.2577 12.2786 10
      vertex -84.4914 12.1073 10
    endloop
  endfacet
  facet normal 0 0 1
    outer loop
      vertex -150 150 10
      vertex -86.0333 12.4014 10
      vertex -85.2577 12.2786 10
    endloop
  endfacet
  facet normal 0 0 1
    outer loop
      vertex -150 150 10
      vertex -86.8151 12.4753 10
      vertex -86.0333 12.4014 10
    endloop
  endfacet
  facet normal 0 0 1
    outer loop
      vertex -150 150 10
      vertex -87.6 12.5 10
      vertex -86.8151 12.4753 10
    endloop
  endfacet
  facet normal 0 0 1
    outer loop
      vertex -87.6 12.5 10
      vertex -150 150 10
      vertex -150 12.5 10
    endloop
  endfacet
  facet normal 0 0 1
    outer loop
      vertex 150 -150 10
      vertex 12.5 -87.6 10
      vertex 12.5 -150 10
    endloop
  endfacet
  facet normal 0 0 1
    outer loop
      vertex -9.11211 -79.0432 10
      vertex -79.0432 -9.11211 10
      vertex -9.63142 -79.6322 10
    endloop
  endfacet
  facet normal -0 0 1
    outer loop
      vertex -79.6322 -9.63142 10
      vertex -9.63142 -79.6322 10
      vertex -79.0432 -9.11211 10
    endloop
  endfacet
  facet normal 0 0 1
    outer loop
      vertex -9.63142 -79.6322 10
      vertex -79.6322 -9.63142 10
      vertex -10.1127 -80.2527 10
    endloop
  endfacet
  facet normal -0 0 1
    outer loop
      vertex -80.2527 -10.1127 10
      vertex -10.1127 -80.2527 10
      vertex -79.6322 -9.63142 10
    endloop
  endfacet
  facet normal 0 0 1
    outer loop
      vertex -10.1127 -80.2527 10
      vertex -80.2527 -10.1127 10
      vertex -10.5541 -80.9022 10
    endloop
  endfacet
  facet normal -0 0 1
    outer loop
      vertex -80.9022 -10.5541 10
      vertex -10.5541 -80.9022 10
      vertex -80.2527 -10.1127 10
    endloop
  endfacet
  facet normal 0 0 1
    outer loop
      vertex -10.5541 -80.9022 10
      vertex -80.9022 -10.5541 10
      vertex -10.9538 -81.5781 10
    endloop
  endfacet
  facet normal -0 0 1
    outer loop
      vertex -81.5781 -10.9538 10
      vertex -10.9538 -81.5781 10
      vertex -80.9022 -10.5541 10
    endloop
  endfacet
  facet normal 0 0 1
    outer loop
      vertex -10.9538 -81.5781 10
      vertex -81.5781 -10.9538 10
      vertex -11.3103 -82.2778 10
    endloop
  endfacet
  facet normal -0 0 1
    outer loop
      vertex -82.2778 -11.3103 10
      vertex -11.3103 -82.2778 10
      vertex -81.5781 -10.9538 10
    endloop
  endfacet
  facet normal 0 0 1
    outer loop
      vertex -11.3103 -82.2778 10
      vertex -82.2778 -11.3103 10
      vertex -11.6222 -82.9984 10
    endloop
  endfacet
  facet normal -0 0 1
    outer loop
      vertex -82.9984 -11.6222 10
      vertex -11.6222 -82.9984 10
      vertex -82.2778 -11.3103 10
    endloop
  endfacet
  facet normal 0 0 1
    outer loop
      vertex -11.6222 -82.9984 10
      vertex -82.9984 -11.6222 10
      vertex -11.8882 -83.7373 10
    endloop
  endfacet
  facet normal -0 0 1
    outer loop
      vertex -83.7373 -11.8882 10
      vertex -11.8882 -83.7373 10
      vertex -82.9984 -11.6222 10
    endloop
  endfacet
  facet normal 0 0 1
    outer loop
      vertex -11.8882 -83.7373 10
      vertex -83.7373 -11.8882 10
      vertex -12.1073 -84.4914 10
    endloop
  endfacet
  facet normal -0 0 1
    outer loop
      vertex -84.4914 -12.1073 10
      vertex -12.1073 -84.4914 10
      vertex -83.7373 -11.8882 10
    endloop
  endfacet
  facet normal 0 0 1
    outer loop
      vertex -12.1073 -84.4914 10
      vertex -84.4914 -12.1073 10
      vertex -12.2786 -85.2577 10
    endloop
  endfacet
  facet normal -0 0 1
    outer loop
      vertex -85.2577 -12.2786 10
      vertex -12.2786 -85.2577 10
      vertex -84.4914 -12.1073 10
    endloop
  endfacet
  facet normal 0 0 1
    outer loop
      vertex -12.2786 -85.2577 10
      vertex -85.2577 -12.2786 10
      vertex -12.4014 -86.0333 10
    endloop
  endfacet
  facet normal -0 0 1
    outer loop
      vertex -86.0333 -12.4014 10
      vertex -12.4014 -86.0333 10
      vertex -85.2577 -12.2786 10
    endloop
  endfacet
  facet normal 0 0 1
    outer loop
      vertex -12.4014 -86.0333 10
      vertex -86.0333 -12.4014 10
      vertex -12.4753 -86.8151 10
    endloop
  endfacet
  facet normal -0 0 1
    outer loop
      vertex -86.8151 -12.4753 10
      vertex -12.4753 -86.8151 10
      vertex -86.0333 -12.4014 10
    endloop
  endfacet
  facet normal 0 0 1
    outer loop
      vertex -12.4753 -86.8151 10
      vertex -86.8151 -12.4753 10
      vertex -12.5 -87.6 10
    endloop
  endfacet
  facet normal -0 0 1
    outer loop
      vertex -87.6 -12.5 10
      vertex -12.5 -87.6 10
      vertex -86.8151 -12.4753 10
    endloop
  endfacet
  facet normal 0 0 1
    outer loop
      vertex -12.5 -87.6 10
      vertex -87.6 -12.5 10
      vertex -150 -150 10
    endloop
  endfacet
  facet normal 0 0 1
    outer loop
      vertex -150 -150 10
      vertex -87.6 -12.5 10
      vertex -150 -12.5 10
    endloop
  endfacet
  facet normal 0 0 1
    outer loop
      vertex -12.5 -87.6 10
      vertex -150 -150 10
      vertex -12.5 -150 10
    endloop
  endfacet
  facet normal 0 0 -1
    outer loop
      vertex -150 -150 -10
      vertex -12.5 -87.6 -10
      vertex -12.5 -150 -10
    endloop
  endfacet
  facet normal 0 0 -1
    outer loop
      vertex -12.5 -87.6 -10
      vertex -75.1247 -0.784881 -10
      vertex -75.1 0 -10
    endloop
  endfacet
  facet normal 0 0 -1
    outer loop
      vertex -12.5 -87.6 -10
      vertex -75.1986 -1.56666 -10
      vertex -75.1247 -0.784881 -10
    endloop
  endfacet
  facet normal 0 0 -1
    outer loop
      vertex -12.5 -87.6 -10
      vertex -75.3214 -2.34227 -10
      vertex -75.1986 -1.56666 -10
    endloop
  endfacet
  facet normal 0 0 -1
    outer loop
      vertex -12.5 -87.6 -10
      vertex -75.4927 -3.10862 -10
      vertex -75.3214 -2.34227 -10
    endloop
  endfacet
  facet normal 0 0 -1
    outer loop
      vertex -12.5 -87.6 -10
      vertex -75.7118 -3.86271 -10
      vertex -75.4927 -3.10862 -10
    endloop
  endfacet
  facet normal 0 0 -1
    outer loop
      vertex -12.5 -87.6 -10
      vertex -75.9778 -4.60156 -10
      vertex -75.7118 -3.86271 -10
    endloop
  endfacet
  facet normal 0 0 -1
    outer loop
      vertex -12.5 -87.6 -10
      vertex -76.2897 -5.32224 -10
      vertex -75.9778 -4.60156 -10
    endloop
  endfacet
  facet normal 0 0 -1
    outer loop
      vertex -12.5 -87.6 -10
      vertex -76.6462 -6.02192 -10
      vertex -76.2897 -5.32224 -10
    endloop
  endfacet
  facet normal 0 0 -1
    outer loop
      vertex -12.5 -87.6 -10
      vertex -77.0459 -6.69783 -10
      vertex -76.6462 -6.02192 -10
    endloop
  endfacet
  facet normal 0 0 -1
    outer loop
      vertex -12.5 -87.6 -10
      vertex -77.4873 -7.34731 -10
      vertex -77.0459 -6.69783 -10
    endloop
  endfacet
  facet normal 0 0 -1
    outer loop
      vertex -12.5 -87.6 -10
      vertex -77.9686 -7.9678 -10
      vertex -77.4873 -7.34731 -10
    endloop
  endfacet
  facet normal 0 0 -1
    outer loop
      vertex -12.5 -87.6 -10
      vertex -78.4879 -8.55684 -10
      vertex -77.9686 -7.9678 -10
    endloop
  endfacet
  facet normal 0 0 -1
    outer loop
      vertex -12.5 -87.6 -10
      vertex -79.0432 -9.11211 -10
      vertex -78.4879 -8.55684 -10
    endloop
  endfacet
  facet normal 0 0 -1
    outer loop
      vertex -12.5 -87.6 -10
      vertex -79.6322 -9.63142 -10
      vertex -79.0432 -9.11211 -10
    endloop
  endfacet
  facet normal 0 0 -1
    outer loop
      vertex -12.5 -87.6 -10
      vertex -80.2527 -10.1127 -10
      vertex -79.6322 -9.63142 -10
    endloop
  endfacet
  facet normal 0 0 -1
    outer loop
      vertex -12.5 -87.6 -10
      vertex -80.9022 -10.5541 -10
      vertex -80.2527 -10.1127 -10
    endloop
  endfacet
  facet normal 0 0 -1
    outer loop
      vertex -12.5 -87.6 -10
      vertex -81.5781 -10.9538 -10
      vertex -80.9022 -10.5541 -10
    endloop
  endfacet
  facet normal 0 0 -1
    outer loop
      vertex -12.5 -87.6 -10
      vertex -82.2778 -11.3103 -10
      vertex -81.5781 -10.9538 -10
    endloop
  endfacet
  facet normal 0 0 -1
    outer loop
      vertex -12.5 -87.6 -10
      vertex -82.9984 -11.6222 -10
      vertex -82.2778 -11.3103 -10
    endloop
  endfacet
  facet normal 0 0 -1
    outer loop
      vertex -12.5 -87.6 -10
      vertex -83.7373 -11.8882 -10
      vertex -82.9984 -11.6222 -10
    endloop
  endfacet
  facet normal 0 0 -1
    outer loop
      vertex -12.5 -87.6 -10
      vertex -84.4914 -12.1073 -10
      vertex -83.7373 -11.8882 -10
    endloop
  endfacet
  facet normal 0 0 -1
    outer loop
      vertex -12.5 -87.6 -10
      vertex -85.2577 -12.2786 -10
      vertex -84.4914 -12.1073 -10
    endloop
  endfacet
  facet normal 0 0 -1
    outer loop
      vertex -12.5 -87.6 -10
      vertex -86.0333 -12.4014 -10
      vertex -85.2577 -12.2786 -10
    endloop
  endfacet
  facet normal 0 0 -1
    outer loop
      vertex -12.5 -87.6 -10
      vertex -86.8151 -12.4753 -10
      vertex -86.0333 -12.4014 -10
    endloop
  endfacet
  facet normal 0 -0 -1
    outer loop
      vertex -87.6 -12.5 -10
      vertex -12.5 -87.6 -10
      vertex -150 -150 -10
    endloop
  endfacet
  facet normal 0 0 -1
    outer loop
      vertex -12.5 -87.6 -10
      vertex -87.6 -12.5 -10
      vertex -86.8151 -12.4753 -10
    endloop
  endfacet
  facet normal -0 0 -1
    outer loop
      vertex -87.6 -12.5 -10
      vertex -150 -150 -10
      vertex -150 -12.5 -10
    endloop
  endfacet
  facet normal 0 0 -1
    outer loop
      vertex 12.5 -87.6 -10
      vertex 150 -150 -10
      vertex 12.5 -150 -10
    endloop
  endfacet
  facet normal 0 0 -1
    outer loop
      vertex 12.4753 -86.8151 -10
      vertex 150 -150 -10
      vertex 12.5 -87.6 -10
    endloop
  endfacet
  facet normal 0 0 -1
    outer loop
      vertex 12.4014 -86.0333 -10
      vertex 150 -150 -10
      vertex 12.4753 -86.8151 -10
    endloop
  endfacet
  facet normal 0 0 -1
    outer loop
      vertex 12.2786 -85.2577 -10
      vertex 150 -150 -10
      vertex 12.4014 -86.0333 -10
    endloop
  endfacet
  facet normal 0 0 -1
    outer loop
      vertex 12.1073 -84.4914 -10
      vertex 150 -150 -10
      vertex 12.2786 -85.2577 -10
    endloop
  endfacet
  facet normal 0 0 -1
    outer loop
      vertex 11.8882 -83.7373 -10
      vertex 150 -150 -10
      vertex 12.1073 -84.4914 -10
    endloop
  endfacet
  facet normal 0 0 -1
    outer loop
      vertex 11.6222 -82.9984 -10
      vertex 150 -150 -10
      vertex 11.8882 -83.7373 -10
    endloop
  endfacet
  facet normal 0 0 -1
    outer loop
      vertex 11.3103 -82.2778 -10
      vertex 150 -150 -10
      vertex 11.6222 -82.9984 -10
    endloop
  endfacet
  facet normal 0 0 -1
    outer loop
      vertex 10.9538 -81.5781 -10
      vertex 150 -150 -10
      vertex 11.3103 -82.2778 -10
    endloop
  endfacet
  facet normal 0 0 -1
    outer loop
      vertex 10.5541 -80.9022 -10
      vertex 150 -150 -10
      vertex 10.9538 -81.5781 -10
    endloop
  endfacet
  facet normal 0 0 -1
    outer loop
      vertex 10.1127 -80.2527 -10
      vertex 150 -150 -10
      vertex 10.5541 -80.9022 -10
    endloop
  endfacet
  facet normal 0 0 -1
    outer loop
      vertex 9.63142 -79.6322 -10
      vertex 150 -150 -10
      vertex 10.1127 -80.2527 -10
    endloop
  endfacet
  facet normal 0 0 -1
    outer loop
      vertex 9.11211 -79.0432 -10
      vertex 150 -150 -10
      vertex 9.63142 -79.6322 -10
    endloop
  endfacet
  facet normal 0 0 -1
    outer loop
      vertex 8.55684 -78.4879 -10
      vertex 150 -150 -10
      vertex 9.11211 -79.0432 -10
    endloop
  endfacet
  facet normal 0 0 -1
    outer loop
      vertex 7.9678 -77.9686 -10
      vertex 150 -150 -10
      vertex 8.55684 -78.4879 -10
    endloop
  endfacet
  facet normal 0 0 -1
    outer loop
      vertex 7.34731 -77.4873 -10
      vertex 150 -150 -10
      vertex 7.9678 -77.9686 -10
    endloop
  endfacet
  facet normal 0 0 -1
    outer loop
      vertex -77.4873 7.34731 -10
      vertex 7.34731 -77.4873 -10
      vertex 6.69783 -77.0459 -10
    endloop
  endfacet
  facet normal 0 0 -1
    outer loop
      vertex -77.0459 6.69783 -10
      vertex 6.69783 -77.0459 -10
      vertex 6.02192 -76.6462 -10
    endloop
  endfacet
  facet normal 0 0 -1
    outer loop
      vertex -76.6462 6.02192 -10
      vertex 6.02192 -76.6462 -10
      vertex 5.32224 -76.2897 -10
    endloop
  endfacet
  facet normal 0 0 -1
    outer loop
      vertex -75.1 0 -10
      vertex -12.4753 -86.8151 -10
      vertex -12.5 -87.6 -10
    endloop
  endfacet
  facet normal 0 0 -1
    outer loop
      vertex -75.1 0 -10
      vertex -12.4014 -86.0333 -10
      vertex -12.4753 -86.8151 -10
    endloop
  endfacet
  facet normal 0 0 -1
    outer loop
      vertex -75.1 0 -10
      vertex -12.2786 -85.2577 -10
      vertex -12.4014 -86.0333 -10
    endloop
  endfacet
  facet normal 0 0 -1
    outer loop
      vertex -75.1 0 -10
      vertex -12.1073 -84.4914 -10
      vertex -12.2786 -85.2577 -10
    endloop
  endfacet
  facet normal 0 0 -1
    outer loop
      vertex -75.1 0 -10
      vertex -11.8882 -83.7373 -10
      vertex -12.1073 -84.4914 -10
    endloop
  endfacet
  facet normal 0 0 -1
    outer loop
      vertex -75.1 0 -10
      vertex -11.6222 -82.9984 -10
      vertex -11.8882 -83.7373 -10
    endloop
  endfacet
  facet normal 0 0 -1
    outer loop
      vertex -75.1 0 -10
      vertex -11.3103 -82.2778 -10
      vertex -11.6222 -82.9984 -10
    endloop
  endfacet
  facet normal 0 0 -1
    outer loop
      vertex -75.1 0 -10
      vertex -10.9538 -81.5781 -10
      vertex -11.3103 -82.2778 -10
    endloop
  endfacet
  facet normal 0 0 -1
    outer loop
      vertex -75.1 0 -10
      vertex -10.5541 -80.9022 -10
      vertex -10.9538 -81.5781 -10
    endloop
  endfacet
  facet normal 0 0 -1
    outer loop
      vertex -75.1 0 -10
      vertex -10.1127 -80.2527 -10
      vertex -10.5541 -80.9022 -10
    endloop
  endfacet
  facet normal 0 0 -1
    outer loop
      vertex -75.1 0 -10
      vertex -9.63142 -79.6322 -10
      vertex -10.1127 -80.2527 -10
    endloop
  endfacet
  facet normal 0 0 -1
    outer loop
      vertex -75.1 0 -10
      vertex -9.11211 -79.0432 -10
      vertex -9.63142 -79.6322 -10
    endloop
  endfacet
  facet normal 0 0 -1
    outer loop
      vertex -75.1 0 -10
      vertex -8.55684 -78.4879 -10
      vertex -9.11211 -79.0432 -10
    endloop
  endfacet
  facet normal 0 0 -1
    outer loop
      vertex -75.1 0 -10
      vertex -7.9678 -77.9686 -10
      vertex -8.55684 -78.4879 -10
    endloop
  endfacet
  facet normal 0 0 -1
    outer loop
      vertex -75.1 0 -10
      vertex -7.34731 -77.4873 -10
      vertex -7.9678 -77.9686 -10
    endloop
  endfacet
  facet normal 0 0 -1
    outer loop
      vertex -75.1 0 -10
      vertex -6.69783 -77.0459 -10
      vertex -7.34731 -77.4873 -10
    endloop
  endfacet
  facet normal 0 0 -1
    outer loop
      vertex -75.1 0 -10
      vertex -6.02192 -76.6462 -10
      vertex -6.69783 -77.0459 -10
    endloop
  endfacet
  facet normal 0 0 -1
    outer loop
      vertex -75.1 0 -10
      vertex -5.32224 -76.2897 -10
      vertex -6.02192 -76.6462 -10
    endloop
  endfacet
  facet normal 0 0 -1
    outer loop
      vertex -75.1 0 -10
      vertex -4.60156 -75.9778 -10
      vertex -5.32224 -76.2897 -10
    endloop
  endfacet
  facet normal 0 0 -1
    outer loop
      vertex -75.1 0 -10
      vertex -3.86271 -75.7118 -10
      vertex -4.60156 -75.9778 -10
    endloop
  endfacet
  facet normal 0 0 -1
    outer loop
      vertex -75.1 0 -10
      vertex -3.10862 -75.4927 -10
      vertex -3.86271 -75.7118 -10
    endloop
  endfacet
  facet normal 0 0 -1
    outer loop
      vertex -75.1 0 -10
      vertex -2.34227 -75.3214 -10
      vertex -3.10862 -75.4927 -10
    endloop
  endfacet
  facet normal 0 0 -1
    outer loop
      vertex -75.1 0 -10
      vertex -1.56666 -75.1986 -10
      vertex -2.34227 -75.3214 -10
    endloop
  endfacet
  facet normal 0 0 -1
    outer loop
      vertex -75.1 0 -10
      vertex -0.784881 -75.1247 -10
      vertex -1.56666 -75.1986 -10
    endloop
  endfacet
  facet normal 0 0 -1
    outer loop
      vertex -75.1 0 -10
      vertex 0 -75.1 -10
      vertex -0.784881 -75.1247 -10
    endloop
  endfacet
  facet normal 0 0 -1
    outer loop
      vertex -75.1 0 -10
      vertex 0.784881 -75.1247 -10
      vertex 0 -75.1 -10
    endloop
  endfacet
  facet normal 0 0 -1
    outer loop
      vertex -75.1247 0.784881 -10
      vertex 0.784881 -75.1247 -10
      vertex -75.1 0 -10
    endloop
  endfacet
  facet normal 0 0 -1
    outer loop
      vertex 0.784881 -75.1247 -10
      vertex -75.1247 0.784881 -10
      vertex 1.56666 -75.1986 -10
    endloop
  endfacet
  facet normal 0 0 -1
    outer loop
      vertex -75.1986 1.56666 -10
      vertex 1.56666 -75.1986 -10
      vertex -75.1247 0.784881 -10
    endloop
  endfacet
  facet normal 0 0 -1
    outer loop
      vertex 1.56666 -75.1986 -10
      vertex -75.1986 1.56666 -10
      vertex 2.34227 -75.3214 -10
    endloop
  endfacet
  facet normal 0 0 -1
    outer loop
      vertex -75.3214 2.34227 -10
      vertex 2.34227 -75.3214 -10
      vertex -75.1986 1.56666 -10
    endloop
  endfacet
  facet normal 0 0 -1
    outer loop
      vertex 2.34227 -75.3214 -10
      vertex -75.3214 2.34227 -10
      vertex 3.10862 -75.4927 -10
    endloop
  endfacet
  facet normal 0 0 -1
    outer loop
      vertex -75.4927 3.10862 -10
      vertex 3.10862 -75.4927 -10
      vertex -75.3214 2.34227 -10
    endloop
  endfacet
  facet normal 0 0 -1
    outer loop
      vertex 3.10862 -75.4927 -10
      vertex -75.4927 3.10862 -10
      vertex 3.86271 -75.7118 -10
    endloop
  endfacet
  facet normal 0 0 -1
    outer loop
      vertex -75.7118 3.86271 -10
      vertex 3.86271 -75.7118 -10
      vertex -75.4927 3.10862 -10
    endloop
  endfacet
  facet normal 0 0 -1
    outer loop
      vertex 3.86271 -75.7118 -10
      vertex -75.7118 3.86271 -10
      vertex 4.60156 -75.9778 -10
    endloop
  endfacet
  facet normal 0 0 -1
    outer loop
      vertex -75.9778 4.60156 -10
      vertex 4.60156 -75.9778 -10
      vertex -75.7118 3.86271 -10
    endloop
  endfacet
  facet normal 0 0 -1
    outer loop
      vertex 4.60156 -75.9778 -10
      vertex -75.9778 4.60156 -10
      vertex 5.32224 -76.2897 -10
    endloop
  endfacet
  facet normal 0 0 -1
    outer loop
      vertex -76.2897 5.32224 -10
      vertex 5.32224 -76.2897 -10
      vertex -75.9778 4.60156 -10
    endloop
  endfacet
  facet normal 0 0 -1
    outer loop
      vertex -76.6462 6.02192 -10
      vertex 5.32224 -76.2897 -10
      vertex -76.2897 5.32224 -10
    endloop
  endfacet
  facet normal 0 0 -1
    outer loop
      vertex 6.02192 -76.6462 -10
      vertex -76.6462 6.02192 -10
      vertex -77.0459 6.69783 -10
    endloop
  endfacet
  facet normal 0 0 -1
    outer loop
      vertex 6.69783 -77.0459 -10
      vertex -77.0459 6.69783 -10
      vertex -77.4873 7.34731 -10
    endloop
  endfacet
  facet normal 0 0 -1
    outer loop
      vertex 7.34731 -77.4873 -10
      vertex -77.4873 7.34731 -10
      vertex 150 -150 -10
    endloop
  endfacet
  facet normal 0 0 -1
    outer loop
      vertex -150 150 -10
      vertex -77.4873 7.34731 -10
      vertex -77.9686 7.9678 -10
    endloop
  endfacet
  facet normal 0 0 -1
    outer loop
      vertex -150 150 -10
      vertex -77.9686 7.9678 -10
      vertex -78.4879 8.55684 -10
    endloop
  endfacet
  facet normal 0 0 -1
    outer loop
      vertex -150 150 -10
      vertex -78.4879 8.55684 -10
      vertex -79.0432 9.11211 -10
    endloop
  endfacet
  facet normal 0 0 -1
    outer loop
      vertex -150 150 -10
      vertex -79.0432 9.11211 -10
      vertex -79.6322 9.63142 -10
    endloop
  endfacet
  facet normal 0 0 -1
    outer loop
      vertex -150 150 -10
      vertex -79.6322 9.63142 -10
      vertex -80.2527 10.1127 -10
    endloop
  endfacet
  facet normal 0 0 -1
    outer loop
      vertex -77.4873 7.34731 -10
      vertex -150 150 -10
      vertex 150 -150 -10
    endloop
  endfacet
  facet normal 0 0 -1
    outer loop
      vertex -80.9022 10.5541 -10
      vertex -150 150 -10
      vertex -80.2527 10.1127 -10
    endloop
  endfacet
  facet normal 0 0 -1
    outer loop
      vertex -81.5781 10.9538 -10
      vertex -150 150 -10
      vertex -80.9022 10.5541 -10
    endloop
  endfacet
  facet normal 0 0 -1
    outer loop
      vertex -82.2778 11.3103 -10
      vertex -150 150 -10
      vertex -81.5781 10.9538 -10
    endloop
  endfacet
  facet normal 0 0 -1
    outer loop
      vertex -82.9984 11.6222 -10
      vertex -150 150 -10
      vertex -82.2778 11.3103 -10
    endloop
  endfacet
  facet normal 0 0 -1
    outer loop
      vertex -83.7373 11.8882 -10
      vertex -150 150 -10
      vertex -82.9984 11.6222 -10
    endloop
  endfacet
  facet normal 0 0 -1
    outer loop
      vertex -84.4914 12.1073 -10
      vertex -150 150 -10
      vertex -83.7373 11.8882 -10
    endloop
  endfacet
  facet normal 0 0 -1
    outer loop
      vertex -85.2577 12.2786 -10
      vertex -150 150 -10
      vertex -84.4914 12.1073 -10
    endloop
  endfacet
  facet normal 0 0 -1
    outer loop
      vertex -86.0333 12.4014 -10
      vertex -150 150 -10
      vertex -85.2577 12.2786 -10
    endloop
  endfacet
  facet normal 0 0 -1
    outer loop
      vertex -86.8151 12.4753 -10
      vertex -150 150 -10
      vertex -86.0333 12.4014 -10
    endloop
  endfacet
  facet normal 0 0 -1
    outer loop
      vertex -87.6 12.5 -10
      vertex -150 150 -10
      vertex -86.8151 12.4753 -10
    endloop
  endfacet
  facet normal 0 0 -1
    outer loop
      vertex -150 150 -10
      vertex -87.6 12.5 -10
      vertex -150 12.5 -10
    endloop
  endfacet
  facet normal -1 0 0
    outer loop
      vertex -150 12.5 -10
      vertex -150 150 10
      vertex -150 150 -10
    endloop
  endfacet
  facet normal -1 -0 0
    outer loop
      vertex -150 150 10
      vertex -150 12.5 -10
      vertex -150 12.5 10
    endloop
  endfacet
  facet normal -1 0 0
    outer loop
      vertex -150 -150 -10
      vertex -150 -12.5 10
      vertex -150 -12.5 -10
    endloop
  endfacet
  facet normal -1 -0 0
    outer loop
      vertex -150 -12.5 10
      vertex -150 -150 -10
      vertex -150 -150 10
    endloop
  endfacet
  facet normal 0 -1 0
    outer loop
      vertex -150 -150 -10
      vertex -12.5 -150 10
      vertex -150 -150 10
    endloop
  endfacet
  facet normal 0 -1 -0
    outer loop
      vertex -12.5 -150 10
      vertex -150 -150 -10
      vertex -12.5 -150 -10
    endloop
  endfacet
  facet normal 0 -1 0
    outer loop
      vertex 12.5 -150 -10
      vertex 150 -150 10
      vertex 12.5 -150 10
    endloop
  endfacet
  facet normal 0 -1 -0
    outer loop
      vertex 150 -150 10
      vertex 12.5 -150 -10
      vertex 150 -150 -10
    endloop
  endfacet
  facet normal 0.707107 0.707107 0
    outer loop
      vertex 150 -150 10
      vertex -150 150 -10
      vertex -150 150 10
    endloop
  endfacet
  facet normal 0.707107 0.707107 0
    outer loop
      vertex -150 150 -10
      vertex 150 -150 10
      vertex 150 -150 -10
    endloop
  endfacet
  facet normal -1 0 0
    outer loop
      vertex 12.5 -150 -10
      vertex 12.5 -87.6 10
      vertex 12.5 -87.6 -10
    endloop
  endfacet
  facet normal -1 -0 0
    outer loop
      vertex 12.5 -87.6 10
      vertex 12.5 -150 -10
      vertex 12.5 -150 10
    endloop
  endfacet
  facet normal 1 -0 0
    outer loop
      vertex -12.5 -150 10
      vertex -12.5 -87.6 -10
      vertex -12.5 -87.6 10
    endloop
  endfacet
  facet normal 1 0 0
    outer loop
      vertex -12.5 -87.6 -10
      vertex -12.5 -150 10
      vertex -12.5 -150 -10
    endloop
  endfacet
  facet normal -0.995562 -0.094106 0
    outer loop
      vertex 12.4753 -86.8151 -10
      vertex 12.4014 -86.0333 10
      vertex 12.4014 -86.0333 -10
    endloop
  endfacet
  facet normal -0.995562 -0.094106 0
    outer loop
      vertex 12.4014 -86.0333 10
      vertex 12.4753 -86.8151 -10
      vertex 12.4753 -86.8151 10
    endloop
  endfacet
  facet normal -0.999505 -0.0314534 0
    outer loop
      vertex 12.5 -87.6 -10
      vertex 12.4753 -86.8151 10
      vertex 12.4753 -86.8151 -10
    endloop
  endfacet
  facet normal -0.999505 -0.0314534 0
    outer loop
      vertex 12.4753 -86.8151 10
      vertex 12.5 -87.6 -10
      vertex 12.5 -87.6 10
    endloop
  endfacet
  facet normal -0.987697 -0.156381 0
    outer loop
      vertex 12.4014 -86.0333 -10
      vertex 12.2786 -85.2577 10
      vertex 12.2786 -85.2577 -10
    endloop
  endfacet
  facet normal -0.987697 -0.156381 0
    outer loop
      vertex 12.2786 -85.2577 10
      vertex 12.4014 -86.0333 -10
      vertex 12.4014 -86.0333 10
    endloop
  endfacet
  facet normal 0.940889 -0.338715 0
    outer loop
      vertex -11.8882 -83.7373 10
      vertex -11.6222 -82.9984 -10
      vertex -11.6222 -82.9984 10
    endloop
  endfacet
  facet normal 0.940889 -0.338715 0
    outer loop
      vertex -11.6222 -82.9984 -10
      vertex -11.8882 -83.7373 10
      vertex -11.8882 -83.7373 -10
    endloop
  endfacet
  facet normal -0.975914 -0.218157 0
    outer loop
      vertex 12.2786 -85.2577 -10
      vertex 12.1073 -84.4914 10
      vertex 12.1073 -84.4914 -10
    endloop
  endfacet
  facet normal -0.975914 -0.218157 0
    outer loop
      vertex 12.1073 -84.4914 10
      vertex 12.2786 -85.2577 -10
      vertex 12.2786 -85.2577 10
    endloop
  endfacet
  facet normal 0.960289 -0.279007 0
    outer loop
      vertex -12.1073 -84.4914 10
      vertex -11.8882 -83.7373 -10
      vertex -11.8882 -83.7373 10
    endloop
  endfacet
  facet normal 0.960289 -0.279007 0
    outer loop
      vertex -11.8882 -83.7373 -10
      vertex -12.1073 -84.4914 10
      vertex -12.1073 -84.4914 -10
    endloop
  endfacet
  facet normal 0.917723 -0.397221 0
    outer loop
      vertex -11.6222 -82.9984 10
      vertex -11.3103 -82.2778 -10
      vertex -11.3103 -82.2778 10
    endloop
  endfacet
  facet normal 0.917723 -0.397221 0
    outer loop
      vertex -11.3103 -82.2778 -10
      vertex -11.6222 -82.9984 10
      vertex -11.6222 -82.9984 -10
    endloop
  endfacet
  facet normal -0.860757 -0.509017 0
    outer loop
      vertex 10.9538 -81.5781 -10
      vertex 10.5541 -80.9022 10
      vertex 10.5541 -80.9022 -10
    endloop
  endfacet
  facet normal -0.860757 -0.509017 0
    outer loop
      vertex 10.5541 -80.9022 10
      vertex 10.9538 -81.5781 -10
      vertex 10.9538 -81.5781 10
    endloop
  endfacet
  facet normal 0.453986 -0.891009 0
    outer loop
      vertex -6.02192 -76.6462 -10
      vertex -5.32224 -76.2897 10
      vertex -6.02192 -76.6462 10
    endloop
  endfacet
  facet normal 0.453986 -0.891009 0
    outer loop
      vertex -5.32224 -76.2897 10
      vertex -6.02192 -76.6462 -10
      vertex -5.32224 -76.2897 -10
    endloop
  endfacet
  facet normal 0.82708 -0.562084 0
    outer loop
      vertex -10.5541 -80.9022 10
      vertex -10.1127 -80.2527 -10
      vertex -10.1127 -80.2527 10
    endloop
  endfacet
  facet normal 0.82708 -0.562084 0
    outer loop
      vertex -10.1127 -80.2527 -10
      vertex -10.5541 -80.9022 10
      vertex -10.5541 -80.9022 -10
    endloop
  endfacet
  facet normal -0.509011 -0.86076 0
    outer loop
      vertex 6.02192 -76.6462 -10
      vertex 6.69783 -77.0459 10
      vertex 6.02192 -76.6462 10
    endloop
  endfacet
  facet normal -0.509011 -0.86076 -0
    outer loop
      vertex 6.69783 -77.0459 10
      vertex 6.02192 -76.6462 -10
      vertex 6.69783 -77.0459 -10
    endloop
  endfacet
  facet normal 0.975914 -0.218157 0
    outer loop
      vertex -12.2786 -85.2577 10
      vertex -12.1073 -84.4914 -10
      vertex -12.1073 -84.4914 10
    endloop
  endfacet
  facet normal 0.975914 -0.218157 0
    outer loop
      vertex -12.1073 -84.4914 -10
      vertex -12.2786 -85.2577 10
      vertex -12.2786 -85.2577 -10
    endloop
  endfacet
  facet normal 0.156379 -0.987697 0
    outer loop
      vertex -2.34227 -75.3214 -10
      vertex -1.56666 -75.1986 10
      vertex -2.34227 -75.3214 10
    endloop
  endfacet
  facet normal 0.156379 -0.987697 0
    outer loop
      vertex -1.56666 -75.1986 10
      vertex -2.34227 -75.3214 -10
      vertex -1.56666 -75.1986 -10
    endloop
  endfacet
  facet normal -0.453986 -0.891009 0
    outer loop
      vertex 5.32224 -76.2897 -10
      vertex 6.02192 -76.6462 10
      vertex 5.32224 -76.2897 10
    endloop
  endfacet
  facet normal -0.453986 -0.891009 -0
    outer loop
      vertex 6.02192 -76.6462 10
      vertex 5.32224 -76.2897 -10
      vertex 6.02192 -76.6462 -10
    endloop
  endfacet
  facet normal -0.612906 -0.790156 0
    outer loop
      vertex 7.34731 -77.4873 -10
      vertex 7.9678 -77.9686 10
      vertex 7.34731 -77.4873 10
    endloop
  endfacet
  facet normal -0.612906 -0.790156 -0
    outer loop
      vertex 7.9678 -77.9686 10
      vertex 7.34731 -77.4873 -10
      vertex 7.9678 -77.9686 -10
    endloop
  endfacet
  facet normal 0.987697 -0.156381 0
    outer loop
      vertex -12.4014 -86.0333 10
      vertex -12.2786 -85.2577 -10
      vertex -12.2786 -85.2577 10
    endloop
  endfacet
  facet normal 0.987697 -0.156381 0
    outer loop
      vertex -12.2786 -85.2577 -10
      vertex -12.4014 -86.0333 10
      vertex -12.4014 -86.0333 -10
    endloop
  endfacet
  facet normal -0.338735 -0.940882 0
    outer loop
      vertex 3.86271 -75.7118 -10
      vertex 4.60156 -75.9778 10
      vertex 3.86271 -75.7118 10
    endloop
  endfacet
  facet normal -0.338735 -0.940882 -0
    outer loop
      vertex 4.60156 -75.9778 10
      vertex 3.86271 -75.7118 -10
      vertex 4.60156 -75.9778 -10
    endloop
  endfacet
  facet normal 0.860757 -0.509017 0
    outer loop
      vertex -10.9538 -81.5781 10
      vertex -10.5541 -80.9022 -10
      vertex -10.5541 -80.9022 10
    endloop
  endfacet
  facet normal 0.860757 -0.509017 0
    outer loop
      vertex -10.5541 -80.9022 -10
      vertex -10.9538 -81.5781 10
      vertex -10.9538 -81.5781 -10
    endloop
  endfacet
  facet normal -0.790173 -0.612884 0
    outer loop
      vertex 10.1127 -80.2527 -10
      vertex 9.63142 -79.6322 10
      vertex 9.63142 -79.6322 -10
    endloop
  endfacet
  facet normal -0.790173 -0.612884 0
    outer loop
      vertex 9.63142 -79.6322 10
      vertex 10.1127 -80.2527 -10
      vertex 10.1127 -80.2527 10
    endloop
  endfacet
  facet normal -0.82708 -0.562084 0
    outer loop
      vertex 10.5541 -80.9022 -10
      vertex 10.1127 -80.2527 10
      vertex 10.1127 -80.2527 -10
    endloop
  endfacet
  facet normal -0.82708 -0.562084 0
    outer loop
      vertex 10.1127 -80.2527 10
      vertex 10.5541 -80.9022 -10
      vertex 10.5541 -80.9022 10
    endloop
  endfacet
  facet normal 0.279011 -0.960288 0
    outer loop
      vertex -3.86271 -75.7118 -10
      vertex -3.10862 -75.4927 10
      vertex -3.86271 -75.7118 10
    endloop
  endfacet
  facet normal 0.279011 -0.960288 0
    outer loop
      vertex -3.10862 -75.4927 10
      vertex -3.86271 -75.7118 -10
      vertex -3.10862 -75.4927 -10
    endloop
  endfacet
  facet normal 0.218144 -0.975917 0
    outer loop
      vertex -3.10862 -75.4927 -10
      vertex -2.34227 -75.3214 10
      vertex -3.10862 -75.4927 10
    endloop
  endfacet
  facet normal 0.218144 -0.975917 0
    outer loop
      vertex -2.34227 -75.3214 10
      vertex -3.10862 -75.4927 -10
      vertex -2.34227 -75.3214 -10
    endloop
  endfacet
  facet normal 0.0941085 -0.995562 0
    outer loop
      vertex -1.56666 -75.1986 -10
      vertex -0.784881 -75.1247 10
      vertex -1.56666 -75.1986 10
    endloop
  endfacet
  facet normal 0.0941085 -0.995562 0
    outer loop
      vertex -0.784881 -75.1247 10
      vertex -1.56666 -75.1986 -10
      vertex -0.784881 -75.1247 -10
    endloop
  endfacet
  facet normal 0.338735 -0.940882 0
    outer loop
      vertex -4.60156 -75.9778 -10
      vertex -3.86271 -75.7118 10
      vertex -4.60156 -75.9778 10
    endloop
  endfacet
  facet normal 0.338735 -0.940882 0
    outer loop
      vertex -3.86271 -75.7118 10
      vertex -4.60156 -75.9778 -10
      vertex -3.86271 -75.7118 -10
    endloop
  endfacet
  facet normal -0.0941085 -0.995562 0
    outer loop
      vertex 0.784881 -75.1247 -10
      vertex 1.56666 -75.1986 10
      vertex 0.784881 -75.1247 10
    endloop
  endfacet
  facet normal -0.0941085 -0.995562 -0
    outer loop
      vertex 1.56666 -75.1986 10
      vertex 0.784881 -75.1247 -10
      vertex 1.56666 -75.1986 -10
    endloop
  endfacet
  facet normal -0.156379 -0.987697 0
    outer loop
      vertex 1.56666 -75.1986 -10
      vertex 2.34227 -75.3214 10
      vertex 1.56666 -75.1986 10
    endloop
  endfacet
  facet normal -0.156379 -0.987697 -0
    outer loop
      vertex 2.34227 -75.3214 10
      vertex 1.56666 -75.1986 -10
      vertex 2.34227 -75.3214 -10
    endloop
  endfacet
  facet normal 0.707126 -0.707088 0
    outer loop
      vertex -9.11211 -79.0432 -10
      vertex -8.55684 -78.4879 10
      vertex -9.11211 -79.0432 10
    endloop
  endfacet
  facet normal 0.707126 -0.707088 0
    outer loop
      vertex -8.55684 -78.4879 10
      vertex -9.11211 -79.0432 -10
      vertex -8.55684 -78.4879 -10
    endloop
  endfacet
  facet normal -0.917723 -0.397221 0
    outer loop
      vertex 11.6222 -82.9984 -10
      vertex 11.3103 -82.2778 10
      vertex 11.3103 -82.2778 -10
    endloop
  endfacet
  facet normal -0.917723 -0.397221 0
    outer loop
      vertex 11.3103 -82.2778 10
      vertex 11.6222 -82.9984 -10
      vertex 11.6222 -82.9984 10
    endloop
  endfacet
  facet normal -0.661306 -0.750117 0
    outer loop
      vertex 7.9678 -77.9686 -10
      vertex 8.55684 -78.4879 10
      vertex 7.9678 -77.9686 10
    endloop
  endfacet
  facet normal -0.661306 -0.750117 -0
    outer loop
      vertex 8.55684 -78.4879 10
      vertex 7.9678 -77.9686 -10
      vertex 8.55684 -78.4879 -10
    endloop
  endfacet
  facet normal 0.397184 -0.917739 0
    outer loop
      vertex -5.32224 -76.2897 -10
      vertex -4.60156 -75.9778 10
      vertex -5.32224 -76.2897 10
    endloop
  endfacet
  facet normal 0.397184 -0.917739 0
    outer loop
      vertex -4.60156 -75.9778 10
      vertex -5.32224 -76.2897 -10
      vertex -4.60156 -75.9778 -10
    endloop
  endfacet
  facet normal -0.707126 -0.707088 0
    outer loop
      vertex 8.55684 -78.4879 -10
      vertex 9.11211 -79.0432 10
      vertex 8.55684 -78.4879 10
    endloop
  endfacet
  facet normal -0.707126 -0.707088 -0
    outer loop
      vertex 9.11211 -79.0432 10
      vertex 8.55684 -78.4879 -10
      vertex 9.11211 -79.0432 -10
    endloop
  endfacet
  facet normal 0.612906 -0.790156 0
    outer loop
      vertex -7.9678 -77.9686 -10
      vertex -7.34731 -77.4873 10
      vertex -7.9678 -77.9686 10
    endloop
  endfacet
  facet normal 0.612906 -0.790156 0
    outer loop
      vertex -7.34731 -77.4873 10
      vertex -7.9678 -77.9686 -10
      vertex -7.34731 -77.4873 -10
    endloop
  endfacet
  facet normal -0.397184 -0.917739 0
    outer loop
      vertex 4.60156 -75.9778 -10
      vertex 5.32224 -76.2897 10
      vertex 4.60156 -75.9778 10
    endloop
  endfacet
  facet normal -0.397184 -0.917739 -0
    outer loop
      vertex 5.32224 -76.2897 10
      vertex 4.60156 -75.9778 -10
      vertex 5.32224 -76.2897 -10
    endloop
  endfacet
  facet normal -0.562095 -0.827072 0
    outer loop
      vertex 6.69783 -77.0459 -10
      vertex 7.34731 -77.4873 10
      vertex 6.69783 -77.0459 10
    endloop
  endfacet
  facet normal -0.562095 -0.827072 -0
    outer loop
      vertex 7.34731 -77.4873 10
      vertex 6.69783 -77.0459 -10
      vertex 7.34731 -77.4873 -10
    endloop
  endfacet
  facet normal 0.661306 -0.750117 0
    outer loop
      vertex -8.55684 -78.4879 -10
      vertex -7.9678 -77.9686 10
      vertex -8.55684 -78.4879 10
    endloop
  endfacet
  facet normal 0.661306 -0.750117 0
    outer loop
      vertex -7.9678 -77.9686 10
      vertex -8.55684 -78.4879 -10
      vertex -7.9678 -77.9686 -10
    endloop
  endfacet
  facet normal -0.891014 -0.453975 0
    outer loop
      vertex 11.3103 -82.2778 -10
      vertex 10.9538 -81.5781 10
      vertex 10.9538 -81.5781 -10
    endloop
  endfacet
  facet normal -0.891014 -0.453975 0
    outer loop
      vertex 10.9538 -81.5781 10
      vertex 11.3103 -82.2778 -10
      vertex 11.3103 -82.2778 10
    endloop
  endfacet
  facet normal 0.891014 -0.453975 0
    outer loop
      vertex -11.3103 -82.2778 10
      vertex -10.9538 -81.5781 -10
      vertex -10.9538 -81.5781 10
    endloop
  endfacet
  facet normal 0.891014 -0.453975 0
    outer loop
      vertex -10.9538 -81.5781 -10
      vertex -11.3103 -82.2778 10
      vertex -11.3103 -82.2778 -10
    endloop
  endfacet
  facet normal 0.750088 -0.661338 0
    outer loop
      vertex -9.63142 -79.6322 10
      vertex -9.11211 -79.0432 -10
      vertex -9.11211 -79.0432 10
    endloop
  endfacet
  facet normal 0.750088 -0.661338 0
    outer loop
      vertex -9.11211 -79.0432 -10
      vertex -9.63142 -79.6322 10
      vertex -9.63142 -79.6322 -10
    endloop
  endfacet
  facet normal -0.960289 -0.279007 0
    outer loop
      vertex 12.1073 -84.4914 -10
      vertex 11.8882 -83.7373 10
      vertex 11.8882 -83.7373 -10
    endloop
  endfacet
  facet normal -0.960289 -0.279007 0
    outer loop
      vertex 11.8882 -83.7373 10
      vertex 12.1073 -84.4914 -10
      vertex 12.1073 -84.4914 10
    endloop
  endfacet
  facet normal 0.509011 -0.86076 0
    outer loop
      vertex -6.69783 -77.0459 -10
      vertex -6.02192 -76.6462 10
      vertex -6.69783 -77.0459 10
    endloop
  endfacet
  facet normal 0.509011 -0.86076 0
    outer loop
      vertex -6.02192 -76.6462 10
      vertex -6.69783 -77.0459 -10
      vertex -6.02192 -76.6462 -10
    endloop
  endfacet
  facet normal -0.940889 -0.338715 0
    outer loop
      vertex 11.8882 -83.7373 -10
      vertex 11.6222 -82.9984 10
      vertex 11.6222 -82.9984 -10
    endloop
  endfacet
  facet normal -0.940889 -0.338715 0
    outer loop
      vertex 11.6222 -82.9984 10
      vertex 11.8882 -83.7373 -10
      vertex 11.8882 -83.7373 10
    endloop
  endfacet
  facet normal -0.0314542 -0.999505 0
    outer loop
      vertex 0 -75.1 -10
      vertex 0.784881 -75.1247 10
      vertex 0 -75.1 10
    endloop
  endfacet
  facet normal -0.0314542 -0.999505 -0
    outer loop
      vertex 0.784881 -75.1247 10
      vertex 0 -75.1 -10
      vertex 0.784881 -75.1247 -10
    endloop
  endfacet
  facet normal 0.0314542 -0.999505 0
    outer loop
      vertex -0.784881 -75.1247 -10
      vertex 0 -75.1 10
      vertex -0.784881 -75.1247 10
    endloop
  endfacet
  facet normal 0.0314542 -0.999505 0
    outer loop
      vertex 0 -75.1 10
      vertex -0.784881 -75.1247 -10
      vertex 0 -75.1 -10
    endloop
  endfacet
  facet normal -0.218144 -0.975917 0
    outer loop
      vertex 2.34227 -75.3214 -10
      vertex 3.10862 -75.4927 10
      vertex 2.34227 -75.3214 10
    endloop
  endfacet
  facet normal -0.218144 -0.975917 -0
    outer loop
      vertex 3.10862 -75.4927 10
      vertex 2.34227 -75.3214 -10
      vertex 3.10862 -75.4927 -10
    endloop
  endfacet
  facet normal -0.279011 -0.960288 0
    outer loop
      vertex 3.10862 -75.4927 -10
      vertex 3.86271 -75.7118 10
      vertex 3.10862 -75.4927 10
    endloop
  endfacet
  facet normal -0.279011 -0.960288 -0
    outer loop
      vertex 3.86271 -75.7118 10
      vertex 3.10862 -75.4927 -10
      vertex 3.86271 -75.7118 -10
    endloop
  endfacet
  facet normal 0.995562 -0.094106 0
    outer loop
      vertex -12.4753 -86.8151 10
      vertex -12.4014 -86.0333 -10
      vertex -12.4014 -86.0333 10
    endloop
  endfacet
  facet normal 0.995562 -0.094106 0
    outer loop
      vertex -12.4014 -86.0333 -10
      vertex -12.4753 -86.8151 10
      vertex -12.4753 -86.8151 -10
    endloop
  endfacet
  facet normal 0.790173 -0.612884 0
    outer loop
      vertex -10.1127 -80.2527 10
      vertex -9.63142 -79.6322 -10
      vertex -9.63142 -79.6322 10
    endloop
  endfacet
  facet normal 0.790173 -0.612884 0
    outer loop
      vertex -9.63142 -79.6322 -10
      vertex -10.1127 -80.2527 10
      vertex -10.1127 -80.2527 -10
    endloop
  endfacet
  facet normal -0.750088 -0.661338 0
    outer loop
      vertex 9.63142 -79.6322 -10
      vertex 9.11211 -79.0432 10
      vertex 9.11211 -79.0432 -10
    endloop
  endfacet
  facet normal -0.750088 -0.661338 0
    outer loop
      vertex 9.11211 -79.0432 10
      vertex 9.63142 -79.6322 -10
      vertex 9.63142 -79.6322 10
    endloop
  endfacet
  facet normal 0.562095 -0.827072 0
    outer loop
      vertex -7.34731 -77.4873 -10
      vertex -6.69783 -77.0459 10
      vertex -7.34731 -77.4873 10
    endloop
  endfacet
  facet normal 0.562095 -0.827072 0
    outer loop
      vertex -6.69783 -77.0459 10
      vertex -7.34731 -77.4873 -10
      vertex -6.69783 -77.0459 -10
    endloop
  endfacet
  facet normal 0.999505 -0.0314534 0
    outer loop
      vertex -12.5 -87.6 10
      vertex -12.4753 -86.8151 -10
      vertex -12.4753 -86.8151 10
    endloop
  endfacet
  facet normal 0.999505 -0.0314534 0
    outer loop
      vertex -12.4753 -86.8151 -10
      vertex -12.5 -87.6 10
      vertex -12.5 -87.6 -10
    endloop
  endfacet
  facet normal 0 1 -0
    outer loop
      vertex -87.6 -12.5 -10
      vertex -150 -12.5 10
      vertex -87.6 -12.5 10
    endloop
  endfacet
  facet normal 0 1 0
    outer loop
      vertex -150 -12.5 10
      vertex -87.6 -12.5 -10
      vertex -150 -12.5 -10
    endloop
  endfacet
  facet normal 0 -1 0
    outer loop
      vertex -150 12.5 -10
      vertex -87.6 12.5 10
      vertex -150 12.5 10
    endloop
  endfacet
  facet normal 0 -1 -0
    outer loop
      vertex -87.6 12.5 10
      vertex -150 12.5 -10
      vertex -87.6 12.5 -10
    endloop
  endfacet
  facet normal -0.094106 0.995562 0
    outer loop
      vertex -86.0333 -12.4014 -10
      vertex -86.8151 -12.4753 10
      vertex -86.0333 -12.4014 10
    endloop
  endfacet
  facet normal -0.094106 0.995562 0
    outer loop
      vertex -86.8151 -12.4753 10
      vertex -86.0333 -12.4014 -10
      vertex -86.8151 -12.4753 -10
    endloop
  endfacet
  facet normal -0.0314534 0.999505 0
    outer loop
      vertex -86.8151 -12.4753 -10
      vertex -87.6 -12.5 10
      vertex -86.8151 -12.4753 10
    endloop
  endfacet
  facet normal -0.0314534 0.999505 0
    outer loop
      vertex -87.6 -12.5 10
      vertex -86.8151 -12.4753 -10
      vertex -87.6 -12.5 -10
    endloop
  endfacet
  facet normal -0.156381 0.987697 0
    outer loop
      vertex -85.2577 -12.2786 -10
      vertex -86.0333 -12.4014 10
      vertex -85.2577 -12.2786 10
    endloop
  endfacet
  facet normal -0.156381 0.987697 0
    outer loop
      vertex -86.0333 -12.4014 10
      vertex -85.2577 -12.2786 -10
      vertex -86.0333 -12.4014 -10
    endloop
  endfacet
  facet normal -0.338715 -0.940889 0
    outer loop
      vertex -83.7373 11.8882 -10
      vertex -82.9984 11.6222 10
      vertex -83.7373 11.8882 10
    endloop
  endfacet
  facet normal -0.338715 -0.940889 -0
    outer loop
      vertex -82.9984 11.6222 10
      vertex -83.7373 11.8882 -10
      vertex -82.9984 11.6222 -10
    endloop
  endfacet
  facet normal -0.218157 0.975914 0
    outer loop
      vertex -84.4914 -12.1073 -10
      vertex -85.2577 -12.2786 10
      vertex -84.4914 -12.1073 10
    endloop
  endfacet
  facet normal -0.218157 0.975914 0
    outer loop
      vertex -85.2577 -12.2786 10
      vertex -84.4914 -12.1073 -10
      vertex -85.2577 -12.2786 -10
    endloop
  endfacet
  facet normal -0.279007 -0.960289 0
    outer loop
      vertex -84.4914 12.1073 -10
      vertex -83.7373 11.8882 10
      vertex -84.4914 12.1073 10
    endloop
  endfacet
  facet normal -0.279007 -0.960289 -0
    outer loop
      vertex -83.7373 11.8882 10
      vertex -84.4914 12.1073 -10
      vertex -83.7373 11.8882 -10
    endloop
  endfacet
  facet normal -0.397221 -0.917723 0
    outer loop
      vertex -82.9984 11.6222 -10
      vertex -82.2778 11.3103 10
      vertex -82.9984 11.6222 10
    endloop
  endfacet
  facet normal -0.397221 -0.917723 -0
    outer loop
      vertex -82.2778 11.3103 10
      vertex -82.9984 11.6222 -10
      vertex -82.2778 11.3103 -10
    endloop
  endfacet
  facet normal -0.509017 0.860757 0
    outer loop
      vertex -80.9022 -10.5541 -10
      vertex -81.5781 -10.9538 10
      vertex -80.9022 -10.5541 10
    endloop
  endfacet
  facet normal -0.509017 0.860757 0
    outer loop
      vertex -81.5781 -10.9538 10
      vertex -80.9022 -10.5541 -10
      vertex -81.5781 -10.9538 -10
    endloop
  endfacet
  facet normal -0.891009 -0.453986 0
    outer loop
      vertex -76.2897 5.32224 -10
      vertex -76.6462 6.02192 10
      vertex -76.6462 6.02192 -10
    endloop
  endfacet
  facet normal -0.891009 -0.453986 0
    outer loop
      vertex -76.6462 6.02192 10
      vertex -76.2897 5.32224 -10
      vertex -76.2897 5.32224 10
    endloop
  endfacet
  facet normal -0.562084 -0.82708 0
    outer loop
      vertex -80.9022 10.5541 -10
      vertex -80.2527 10.1127 10
      vertex -80.9022 10.5541 10
    endloop
  endfacet
  facet normal -0.562084 -0.82708 -0
    outer loop
      vertex -80.2527 10.1127 10
      vertex -80.9022 10.5541 -10
      vertex -80.2527 10.1127 -10
    endloop
  endfacet
  facet normal -0.86076 0.509011 0
    outer loop
      vertex -77.0459 -6.69783 -10
      vertex -76.6462 -6.02192 10
      vertex -76.6462 -6.02192 -10
    endloop
  endfacet
  facet normal -0.86076 0.509011 0
    outer loop
      vertex -76.6462 -6.02192 10
      vertex -77.0459 -6.69783 -10
      vertex -77.0459 -6.69783 10
    endloop
  endfacet
  facet normal -0.218157 -0.975914 0
    outer loop
      vertex -85.2577 12.2786 -10
      vertex -84.4914 12.1073 10
      vertex -85.2577 12.2786 10
    endloop
  endfacet
  facet normal -0.218157 -0.975914 -0
    outer loop
      vertex -84.4914 12.1073 10
      vertex -85.2577 12.2786 -10
      vertex -84.4914 12.1073 -10
    endloop
  endfacet
  facet normal -0.987697 -0.156379 0
    outer loop
      vertex -75.1986 1.56666 -10
      vertex -75.3214 2.34227 10
      vertex -75.3214 2.34227 -10
    endloop
  endfacet
  facet normal -0.987697 -0.156379 0
    outer loop
      vertex -75.3214 2.34227 10
      vertex -75.1986 1.56666 -10
      vertex -75.1986 1.56666 10
    endloop
  endfacet
  facet normal -0.891009 0.453986 0
    outer loop
      vertex -76.6462 -6.02192 -10
      vertex -76.2897 -5.32224 10
      vertex -76.2897 -5.32224 -10
    endloop
  endfacet
  facet normal -0.891009 0.453986 0
    outer loop
      vertex -76.2897 -5.32224 10
      vertex -76.6462 -6.02192 -10
      vertex -76.6462 -6.02192 10
    endloop
  endfacet
  facet normal -0.790156 0.612906 0
    outer loop
      vertex -77.9686 -7.9678 -10
      vertex -77.4873 -7.34731 10
      vertex -77.4873 -7.34731 -10
    endloop
  endfacet
  facet normal -0.790156 0.612906 0
    outer loop
      vertex -77.4873 -7.34731 10
      vertex -77.9686 -7.9678 -10
      vertex -77.9686 -7.9678 10
    endloop
  endfacet
  facet normal -0.156381 -0.987697 0
    outer loop
      vertex -86.0333 12.4014 -10
      vertex -85.2577 12.2786 10
      vertex -86.0333 12.4014 10
    endloop
  endfacet
  facet normal -0.156381 -0.987697 -0
    outer loop
      vertex -85.2577 12.2786 10
      vertex -86.0333 12.4014 -10
      vertex -85.2577 12.2786 -10
    endloop
  endfacet
  facet normal -0.940882 0.338735 0
    outer loop
      vertex -75.9778 -4.60156 -10
      vertex -75.7118 -3.86271 10
      vertex -75.7118 -3.86271 -10
    endloop
  endfacet
  facet normal -0.940882 0.338735 0
    outer loop
      vertex -75.7118 -3.86271 10
      vertex -75.9778 -4.60156 -10
      vertex -75.9778 -4.60156 10
    endloop
  endfacet
  facet normal -0.509017 -0.860757 0
    outer loop
      vertex -81.5781 10.9538 -10
      vertex -80.9022 10.5541 10
      vertex -81.5781 10.9538 10
    endloop
  endfacet
  facet normal -0.509017 -0.860757 -0
    outer loop
      vertex -80.9022 10.5541 10
      vertex -81.5781 10.9538 -10
      vertex -80.9022 10.5541 -10
    endloop
  endfacet
  facet normal -0.612884 0.790173 0
    outer loop
      vertex -79.6322 -9.63142 -10
      vertex -80.2527 -10.1127 10
      vertex -79.6322 -9.63142 10
    endloop
  endfacet
  facet normal -0.612884 0.790173 0
    outer loop
      vertex -80.2527 -10.1127 10
      vertex -79.6322 -9.63142 -10
      vertex -80.2527 -10.1127 -10
    endloop
  endfacet
  facet normal -0.562084 0.82708 0
    outer loop
      vertex -80.2527 -10.1127 -10
      vertex -80.9022 -10.5541 10
      vertex -80.2527 -10.1127 10
    endloop
  endfacet
  facet normal -0.562084 0.82708 0
    outer loop
      vertex -80.9022 -10.5541 10
      vertex -80.2527 -10.1127 -10
      vertex -80.9022 -10.5541 -10
    endloop
  endfacet
  facet normal -0.960288 -0.279011 0
    outer loop
      vertex -75.4927 3.10862 -10
      vertex -75.7118 3.86271 10
      vertex -75.7118 3.86271 -10
    endloop
  endfacet
  facet normal -0.960288 -0.279011 0
    outer loop
      vertex -75.7118 3.86271 10
      vertex -75.4927 3.10862 -10
      vertex -75.4927 3.10862 10
    endloop
  endfacet
  facet normal -0.975917 -0.218144 0
    outer loop
      vertex -75.3214 2.34227 -10
      vertex -75.4927 3.10862 10
      vertex -75.4927 3.10862 -10
    endloop
  endfacet
  facet normal -0.975917 -0.218144 0
    outer loop
      vertex -75.4927 3.10862 10
      vertex -75.3214 2.34227 -10
      vertex -75.3214 2.34227 10
    endloop
  endfacet
  facet normal -0.995562 -0.0941085 0
    outer loop
      vertex -75.1247 0.784881 -10
      vertex -75.1986 1.56666 10
      vertex -75.1986 1.56666 -10
    endloop
  endfacet
  facet normal -0.995562 -0.0941085 0
    outer loop
      vertex -75.1986 1.56666 10
      vertex -75.1247 0.784881 -10
      vertex -75.1247 0.784881 10
    endloop
  endfacet
  facet normal -0.940882 -0.338735 0
    outer loop
      vertex -75.7118 3.86271 -10
      vertex -75.9778 4.60156 10
      vertex -75.9778 4.60156 -10
    endloop
  endfacet
  facet normal -0.940882 -0.338735 0
    outer loop
      vertex -75.9778 4.60156 10
      vertex -75.7118 3.86271 -10
      vertex -75.7118 3.86271 10
    endloop
  endfacet
  facet normal -0.995562 0.0941085 0
    outer loop
      vertex -75.1986 -1.56666 -10
      vertex -75.1247 -0.784881 10
      vertex -75.1247 -0.784881 -10
    endloop
  endfacet
  facet normal -0.995562 0.0941085 0
    outer loop
      vertex -75.1247 -0.784881 10
      vertex -75.1986 -1.56666 -10
      vertex -75.1986 -1.56666 10
    endloop
  endfacet
  facet normal -0.987697 0.156379 0
    outer loop
      vertex -75.3214 -2.34227 -10
      vertex -75.1986 -1.56666 10
      vertex -75.1986 -1.56666 -10
    endloop
  endfacet
  facet normal -0.987697 0.156379 0
    outer loop
      vertex -75.1986 -1.56666 10
      vertex -75.3214 -2.34227 -10
      vertex -75.3214 -2.34227 10
    endloop
  endfacet
  facet normal -0.707088 -0.707126 0
    outer loop
      vertex -78.4879 8.55684 -10
      vertex -79.0432 9.11211 10
      vertex -79.0432 9.11211 -10
    endloop
  endfacet
  facet normal -0.707088 -0.707126 0
    outer loop
      vertex -79.0432 9.11211 10
      vertex -78.4879 8.55684 -10
      vertex -78.4879 8.55684 10
    endloop
  endfacet
  facet normal -0.397221 0.917723 0
    outer loop
      vertex -82.2778 -11.3103 -10
      vertex -82.9984 -11.6222 10
      vertex -82.2778 -11.3103 10
    endloop
  endfacet
  facet normal -0.397221 0.917723 0
    outer loop
      vertex -82.9984 -11.6222 10
      vertex -82.2778 -11.3103 -10
      vertex -82.9984 -11.6222 -10
    endloop
  endfacet
  facet normal -0.750117 0.661306 0
    outer loop
      vertex -78.4879 -8.55684 -10
      vertex -77.9686 -7.9678 10
      vertex -77.9686 -7.9678 -10
    endloop
  endfacet
  facet normal -0.750117 0.661306 0
    outer loop
      vertex -77.9686 -7.9678 10
      vertex -78.4879 -8.55684 -10
      vertex -78.4879 -8.55684 10
    endloop
  endfacet
  facet normal -0.917739 -0.397184 0
    outer loop
      vertex -75.9778 4.60156 -10
      vertex -76.2897 5.32224 10
      vertex -76.2897 5.32224 -10
    endloop
  endfacet
  facet normal -0.917739 -0.397184 0
    outer loop
      vertex -76.2897 5.32224 10
      vertex -75.9778 4.60156 -10
      vertex -75.9778 4.60156 10
    endloop
  endfacet
  facet normal -0.707088 0.707126 0
    outer loop
      vertex -79.0432 -9.11211 -10
      vertex -78.4879 -8.55684 10
      vertex -78.4879 -8.55684 -10
    endloop
  endfacet
  facet normal -0.707088 0.707126 0
    outer loop
      vertex -78.4879 -8.55684 10
      vertex -79.0432 -9.11211 -10
      vertex -79.0432 -9.11211 10
    endloop
  endfacet
  facet normal -0.790156 -0.612906 0
    outer loop
      vertex -77.4873 7.34731 -10
      vertex -77.9686 7.9678 10
      vertex -77.9686 7.9678 -10
    endloop
  endfacet
  facet normal -0.790156 -0.612906 0
    outer loop
      vertex -77.9686 7.9678 10
      vertex -77.4873 7.34731 -10
      vertex -77.4873 7.34731 10
    endloop
  endfacet
  facet normal -0.917739 0.397184 0
    outer loop
      vertex -76.2897 -5.32224 -10
      vertex -75.9778 -4.60156 10
      vertex -75.9778 -4.60156 -10
    endloop
  endfacet
  facet normal -0.917739 0.397184 0
    outer loop
      vertex -75.9778 -4.60156 10
      vertex -76.2897 -5.32224 -10
      vertex -76.2897 -5.32224 10
    endloop
  endfacet
  facet normal -0.827072 0.562095 0
    outer loop
      vertex -77.4873 -7.34731 -10
      vertex -77.0459 -6.69783 10
      vertex -77.0459 -6.69783 -10
    endloop
  endfacet
  facet normal -0.827072 0.562095 0
    outer loop
      vertex -77.0459 -6.69783 10
      vertex -77.4873 -7.34731 -10
      vertex -77.4873 -7.34731 10
    endloop
  endfacet
  facet normal -0.750117 -0.661306 0
    outer loop
      vertex -77.9686 7.9678 -10
      vertex -78.4879 8.55684 10
      vertex -78.4879 8.55684 -10
    endloop
  endfacet
  facet normal -0.750117 -0.661306 0
    outer loop
      vertex -78.4879 8.55684 10
      vertex -77.9686 7.9678 -10
      vertex -77.9686 7.9678 10
    endloop
  endfacet
  facet normal -0.453975 0.891014 0
    outer loop
      vertex -81.5781 -10.9538 -10
      vertex -82.2778 -11.3103 10
      vertex -81.5781 -10.9538 10
    endloop
  endfacet
  facet normal -0.453975 0.891014 0
    outer loop
      vertex -82.2778 -11.3103 10
      vertex -81.5781 -10.9538 -10
      vertex -82.2778 -11.3103 -10
    endloop
  endfacet
  facet normal -0.453975 -0.891014 0
    outer loop
      vertex -82.2778 11.3103 -10
      vertex -81.5781 10.9538 10
      vertex -82.2778 11.3103 10
    endloop
  endfacet
  facet normal -0.453975 -0.891014 -0
    outer loop
      vertex -81.5781 10.9538 10
      vertex -82.2778 11.3103 -10
      vertex -81.5781 10.9538 -10
    endloop
  endfacet
  facet normal -0.661338 -0.750088 0
    outer loop
      vertex -79.6322 9.63142 -10
      vertex -79.0432 9.11211 10
      vertex -79.6322 9.63142 10
    endloop
  endfacet
  facet normal -0.661338 -0.750088 -0
    outer loop
      vertex -79.0432 9.11211 10
      vertex -79.6322 9.63142 -10
      vertex -79.0432 9.11211 -10
    endloop
  endfacet
  facet normal -0.279007 0.960289 0
    outer loop
      vertex -83.7373 -11.8882 -10
      vertex -84.4914 -12.1073 10
      vertex -83.7373 -11.8882 10
    endloop
  endfacet
  facet normal -0.279007 0.960289 0
    outer loop
      vertex -84.4914 -12.1073 10
      vertex -83.7373 -11.8882 -10
      vertex -84.4914 -12.1073 -10
    endloop
  endfacet
  facet normal -0.86076 -0.509011 0
    outer loop
      vertex -76.6462 6.02192 -10
      vertex -77.0459 6.69783 10
      vertex -77.0459 6.69783 -10
    endloop
  endfacet
  facet normal -0.86076 -0.509011 0
    outer loop
      vertex -77.0459 6.69783 10
      vertex -76.6462 6.02192 -10
      vertex -76.6462 6.02192 10
    endloop
  endfacet
  facet normal -0.338715 0.940889 0
    outer loop
      vertex -82.9984 -11.6222 -10
      vertex -83.7373 -11.8882 10
      vertex -82.9984 -11.6222 10
    endloop
  endfacet
  facet normal -0.338715 0.940889 0
    outer loop
      vertex -83.7373 -11.8882 10
      vertex -82.9984 -11.6222 -10
      vertex -83.7373 -11.8882 -10
    endloop
  endfacet
  facet normal -0.999505 0.0314542 0
    outer loop
      vertex -75.1247 -0.784881 -10
      vertex -75.1 0 10
      vertex -75.1 0 -10
    endloop
  endfacet
  facet normal -0.999505 0.0314542 0
    outer loop
      vertex -75.1 0 10
      vertex -75.1247 -0.784881 -10
      vertex -75.1247 -0.784881 10
    endloop
  endfacet
  facet normal -0.999505 -0.0314542 0
    outer loop
      vertex -75.1 0 -10
      vertex -75.1247 0.784881 10
      vertex -75.1247 0.784881 -10
    endloop
  endfacet
  facet normal -0.999505 -0.0314542 0
    outer loop
      vertex -75.1247 0.784881 10
      vertex -75.1 0 -10
      vertex -75.1 0 10
    endloop
  endfacet
  facet normal -0.975917 0.218144 0
    outer loop
      vertex -75.4927 -3.10862 -10
      vertex -75.3214 -2.34227 10
      vertex -75.3214 -2.34227 -10
    endloop
  endfacet
  facet normal -0.975917 0.218144 0
    outer loop
      vertex -75.3214 -2.34227 10
      vertex -75.4927 -3.10862 -10
      vertex -75.4927 -3.10862 10
    endloop
  endfacet
  facet normal -0.960288 0.279011 0
    outer loop
      vertex -75.7118 -3.86271 -10
      vertex -75.4927 -3.10862 10
      vertex -75.4927 -3.10862 -10
    endloop
  endfacet
  facet normal -0.960288 0.279011 0
    outer loop
      vertex -75.4927 -3.10862 10
      vertex -75.7118 -3.86271 -10
      vertex -75.7118 -3.86271 10
    endloop
  endfacet
  facet normal -0.094106 -0.995562 0
    outer loop
      vertex -86.8151 12.4753 -10
      vertex -86.0333 12.4014 10
      vertex -86.8151 12.4753 10
    endloop
  endfacet
  facet normal -0.094106 -0.995562 -0
    outer loop
      vertex -86.0333 12.4014 10
      vertex -86.8151 12.4753 -10
      vertex -86.0333 12.4014 -10
    endloop
  endfacet
  facet normal -0.612884 -0.790173 0
    outer loop
      vertex -80.2527 10.1127 -10
      vertex -79.6322 9.63142 10
      vertex -80.2527 10.1127 10
    endloop
  endfacet
  facet normal -0.612884 -0.790173 -0
    outer loop
      vertex -79.6322 9.63142 10
      vertex -80.2527 10.1127 -10
      vertex -79.6322 9.63142 -10
    endloop
  endfacet
  facet normal -0.661338 0.750088 0
    outer loop
      vertex -79.0432 -9.11211 -10
      vertex -79.6322 -9.63142 10
      vertex -79.0432 -9.11211 10
    endloop
  endfacet
  facet normal -0.661338 0.750088 0
    outer loop
      vertex -79.6322 -9.63142 10
      vertex -79.0432 -9.11211 -10
      vertex -79.6322 -9.63142 -10
    endloop
  endfacet
  facet normal -0.827072 -0.562095 0
    outer loop
      vertex -77.0459 6.69783 -10
      vertex -77.4873 7.34731 10
      vertex -77.4873 7.34731 -10
    endloop
  endfacet
  facet normal -0.827072 -0.562095 0
    outer loop
      vertex -77.4873 7.34731 10
      vertex -77.0459 6.69783 -10
      vertex -77.0459 6.69783 10
    endloop
  endfacet
  facet normal -0.0314534 -0.999505 0
    outer loop
      vertex -87.6 12.5 -10
      vertex -86.8151 12.4753 10
      vertex -87.6 12.5 10
    endloop
  endfacet
  facet normal -0.0314534 -0.999505 -0
    outer loop
      vertex -86.8151 12.4753 10
      vertex -87.6 12.5 -10
      vertex -86.8151 12.4753 -10
    endloop
  endfacet
endsolid OpenSCAD_Model
